<mxfile host="app.diagrams.net" modified="2023-02-09T15:28:41.229Z" agent="5.0 (Macintosh)" etag="Ti5H95xI1935ayge_19Y" version="20.5.3" type="github">
  <diagram id="Ox-5USU47mw0coAknR-2" name="Page-1">
    <mxGraphModel dx="839" dy="466" grid="1" gridSize="10" guides="1" tooltips="1" connect="1" arrows="1" fold="1" page="1" pageScale="1" pageWidth="850" pageHeight="1100" math="0" shadow="0">
      <root>
        <mxCell id="0" />
        <mxCell id="1" parent="0" />
        <mxCell id="gHRdiQ_8jNhcd9hCINz7-1" value="Infrastructure as Code" style="rounded=0;whiteSpace=wrap;html=1;fillColor=#f8cecc;strokeColor=#b85450;" vertex="1" parent="1">
          <mxGeometry x="240" y="420" width="370" height="20" as="geometry" />
        </mxCell>
        <mxCell id="gHRdiQ_8jNhcd9hCINz7-3" value="Computing Resources" style="rounded=0;whiteSpace=wrap;html=1;fillColor=#f5f5f5;fontColor=#333333;strokeColor=#666666;" vertex="1" parent="1">
          <mxGeometry x="240" y="450" width="370" height="20" as="geometry" />
        </mxCell>
        <mxCell id="gHRdiQ_8jNhcd9hCINz7-4" value="Container Orchestration" style="rounded=0;whiteSpace=wrap;html=1;fillColor=#d5e8d4;strokeColor=#82b366;" vertex="1" parent="1">
          <mxGeometry x="240" y="390" width="370" height="20" as="geometry" />
        </mxCell>
        <mxCell id="gHRdiQ_8jNhcd9hCINz7-5" value="Software" style="rounded=0;whiteSpace=wrap;html=1;fillColor=#d5e8d4;strokeColor=#82b366;" vertex="1" parent="1">
          <mxGeometry x="240" y="360" width="370" height="20" as="geometry" />
        </mxCell>
      </root>
    </mxGraphModel>
  </diagram>
</mxfile>
